<svg xmlns="http://www.w3.org/2000/svg" xmlns:xlink="http://www.w3.org/1999/xlink" width="500" zoomAndPan="magnify" viewBox="0 0 375 374.999991" height="500" preserveAspectRatio="xMidYMid meet" version="1.0"><defs><g/></defs><g fill="#000000" fill-opacity="1"><g transform="translate(23.478888, 188.992703)"><g><path d="M 22.097656 3.523438 C 26.101562 3.523438 30.023438 1.519531 30.902344 0.960938 C 31.0625 0.878906 31.144531 0.71875 31.144531 0.558594 C 31.144531 0.320312 30.902344 0.078125 30.664062 0.078125 C 30.582031 0.078125 30.503906 0.160156 30.421875 0.160156 C 29.542969 0.71875 25.941406 2.5625 22.097656 2.5625 C 18.175781 2.5625 17.054688 -1.359375 15.851562 -5.445312 C 15.210938 -7.605469 14.570312 -9.765625 13.371094 -11.289062 C 19.613281 -12.890625 29.300781 -16.574219 34.1875 -21.695312 C 34.265625 -21.855469 34.265625 -21.9375 34.265625 -22.015625 C 34.265625 -22.335938 34.105469 -22.496094 33.867188 -22.496094 C 33.707031 -22.496094 33.546875 -22.496094 33.464844 -22.335938 C 28.582031 -17.214844 18.734375 -13.449219 12.648438 -12.007812 C 12.25 -12.410156 11.769531 -12.730469 11.207031 -12.890625 C 15.292969 -17.535156 19.855469 -22.097656 23.859375 -25.460938 C 23.9375 -25.539062 24.019531 -25.699219 24.019531 -25.859375 C 24.019531 -26.101562 23.859375 -26.261719 23.539062 -26.261719 C 23.457031 -26.261719 23.378906 -26.261719 23.296875 -26.179688 C 19.136719 -22.65625 14.332031 -17.855469 10.085938 -13.050781 C 8.007812 -13.050781 6.246094 -12.570312 6.246094 -11.527344 C 6.246094 -10.886719 6.964844 -10.566406 7.847656 -10.488281 C 3.523438 -5.445312 0 -0.71875 -1.441406 2.160156 C -1.519531 2.242188 -1.519531 2.242188 -1.519531 2.402344 C -1.519531 2.640625 -1.28125 2.800781 -1.039062 2.800781 C -0.878906 2.800781 -0.71875 2.722656 -0.640625 2.5625 C 0.878906 -0.320312 4.5625 -5.285156 9.046875 -10.488281 C 9.925781 -10.566406 11.128906 -10.726562 12.410156 -11.046875 C 13.609375 -9.765625 14.25 -7.605469 14.972656 -5.203125 C 16.09375 -1.121094 17.453125 3.523438 22.097656 3.523438 Z M 8.328125 -11.367188 C 7.925781 -11.367188 7.125 -11.367188 7.125 -11.527344 C 7.125 -11.769531 8.167969 -12.007812 9.289062 -12.089844 L 8.648438 -11.449219 C 8.566406 -11.367188 8.488281 -11.367188 8.328125 -11.367188 Z M 9.847656 -11.449219 L 10.488281 -12.089844 C 10.726562 -12.089844 10.886719 -12.007812 11.128906 -11.929688 C 11.367188 -11.847656 11.367188 -11.769531 11.128906 -11.6875 Z M 9.847656 -11.449219 "/></g></g></g><g fill="#000000" fill-opacity="1"><g transform="translate(50.055254, 188.992703)"><g><path d="M -2.242188 0 C -1.921875 0 -1.199219 -0.640625 -0.238281 -1.28125 C 2.882812 -3.523438 9.207031 -8.167969 11.769531 -8.167969 C 12.089844 -8.167969 12.167969 -7.925781 12.167969 -7.765625 C 12.167969 -7.367188 11.847656 -6.085938 11.527344 -4.964844 C 11.289062 -3.921875 11.046875 -2.882812 11.046875 -2.402344 C 11.046875 -1.441406 11.769531 -0.878906 12.890625 -0.878906 C 15.773438 -0.878906 20.816406 -2.960938 25.699219 -6.164062 C 25.859375 -6.246094 25.941406 -6.40625 25.941406 -6.566406 C 25.941406 -6.804688 25.699219 -6.964844 25.460938 -6.964844 L 25.21875 -6.964844 C 20.414062 -3.761719 15.53125 -1.761719 12.890625 -1.761719 C 12.25 -1.761719 12.007812 -2 12.007812 -2.402344 C 12.007812 -2.800781 12.167969 -3.683594 12.488281 -4.722656 C 12.730469 -5.925781 13.050781 -7.207031 13.050781 -7.925781 C 13.050781 -8.648438 12.570312 -9.046875 11.769531 -9.046875 C 9.6875 -9.046875 5.925781 -6.886719 -0.398438 -2.320312 C -0.800781 -2.082031 -0.878906 -2.402344 -0.71875 -2.640625 C 1.039062 -5.125 4.484375 -9.128906 7.6875 -11.527344 C 7.765625 -11.609375 7.847656 -11.769531 7.847656 -11.929688 C 7.847656 -12.167969 7.6875 -12.328125 7.445312 -12.328125 C 7.285156 -12.328125 7.207031 -12.328125 7.125 -12.25 C 2.480469 -8.726562 -2.640625 -1.921875 -2.882812 -0.878906 C -2.960938 -0.398438 -2.722656 0 -2.242188 0 Z M -2.242188 0 "/></g></g></g><g fill="#000000" fill-opacity="1"><g transform="translate(73.669794, 188.992703)"><g><path d="M -0.480469 0.640625 C 2.082031 0.640625 4.5625 -3.683594 4.082031 -6.804688 C 4.082031 -6.964844 4.164062 -7.125 4.324219 -6.964844 C 8.96875 -4.082031 15.132812 -3.761719 19.296875 -6.164062 C 19.453125 -6.246094 19.613281 -6.40625 19.613281 -6.566406 C 19.613281 -6.804688 19.375 -6.964844 19.136719 -6.964844 L 18.894531 -6.964844 C 15.050781 -4.722656 9.449219 -5.042969 5.125 -7.605469 C 4.964844 -7.6875 4.964844 -7.765625 5.125 -7.847656 C 5.203125 -7.925781 5.363281 -7.925781 5.445312 -8.007812 C 5.683594 -8.007812 5.765625 -8.167969 5.765625 -8.40625 C 5.765625 -8.648438 5.605469 -8.886719 5.363281 -8.886719 C 5.285156 -8.886719 5.203125 -8.886719 5.203125 -8.808594 C 4.804688 -8.726562 4.402344 -8.566406 4.082031 -8.40625 C 3.921875 -8.328125 3.921875 -8.328125 3.761719 -8.40625 C 3.441406 -8.488281 3.121094 -8.246094 2.960938 -7.925781 C 2.960938 -7.847656 2.882812 -7.847656 2.882812 -7.765625 C 0.078125 -6.085938 -2 -3.441406 -2 -1.199219 C -2 -0.078125 -1.441406 0.640625 -0.480469 0.640625 Z M -0.480469 -0.238281 C -0.878906 -0.238281 -1.121094 -0.558594 -1.121094 -1.199219 C -1.121094 -3.042969 0.71875 -5.363281 3.203125 -6.886719 C 3.601562 -4.324219 1.441406 -0.238281 -0.480469 -0.238281 Z M -0.480469 -0.238281 "/></g></g></g><g fill="#000000" fill-opacity="1"><g transform="translate(90.960447, 188.992703)"><g><path d="M -3.761719 3.921875 C -1.761719 3.921875 2.722656 0.71875 5.523438 -1.839844 C 5.765625 -2.082031 5.925781 -1.921875 5.84375 -1.679688 C 5.605469 -0.960938 5.363281 -0.078125 5.363281 0.558594 C 5.363281 1.519531 5.84375 2.082031 6.726562 2.082031 C 9.289062 2.082031 13.929688 -3.042969 15.132812 -6.726562 C 15.210938 -6.886719 15.292969 -6.886719 15.371094 -6.804688 C 16.8125 -6.003906 19.535156 -4.5625 22.976562 -4.5625 C 25.941406 -4.5625 27.703125 -5.042969 29.703125 -6.164062 C 29.78125 -6.246094 29.941406 -6.40625 29.941406 -6.566406 C 29.941406 -6.804688 29.703125 -6.964844 29.460938 -6.964844 L 29.222656 -6.964844 C 27.382812 -5.84375 25.78125 -5.523438 22.976562 -5.523438 C 19.535156 -5.523438 16.8125 -7.046875 15.53125 -7.847656 C 15.453125 -7.847656 15.453125 -7.925781 15.453125 -8.085938 L 15.453125 -8.40625 C 15.453125 -9.207031 15.210938 -9.765625 14.570312 -9.765625 C 14.011719 -9.765625 13.691406 -9.449219 13.691406 -8.886719 C 13.691406 -8.488281 13.929688 -7.925781 14.332031 -7.605469 C 14.410156 -7.527344 14.410156 -7.445312 14.410156 -7.367188 C 13.449219 -4.082031 8.96875 1.199219 6.726562 1.199219 C 6.40625 1.199219 6.324219 0.878906 6.324219 0.558594 C 6.324219 -0.480469 6.964844 -2.480469 7.765625 -3.921875 C 7.925781 -4.164062 7.847656 -4.402344 7.605469 -4.5625 C 7.367188 -4.722656 7.125 -4.722656 6.964844 -4.484375 C 5.042969 -2.320312 -1.441406 3.042969 -3.761719 3.042969 C -3.921875 3.042969 -4.082031 2.960938 -4.082031 2.722656 C -4.082031 0.640625 1.121094 -5.925781 4.402344 -8.007812 C 4.5625 -8.085938 4.644531 -8.246094 4.644531 -8.40625 C 4.644531 -8.648438 4.402344 -8.886719 4.164062 -8.886719 C 4.082031 -8.886719 4.003906 -8.808594 3.921875 -8.808594 C 0.640625 -6.804688 -5.042969 0.160156 -5.042969 2.800781 C -5.042969 3.523438 -4.5625 3.921875 -3.761719 3.921875 Z M -3.761719 3.921875 "/></g></g></g><g fill="#000000" fill-opacity="1"><g transform="translate(118.57745, 188.992703)"><g><path d="M 0.480469 3.523438 C 3.601562 3.523438 12.648438 -1.441406 19.453125 -6.164062 C 19.535156 -6.246094 19.613281 -6.324219 19.613281 -6.484375 C 19.613281 -6.726562 19.453125 -6.964844 19.214844 -6.964844 C 19.054688 -6.964844 18.976562 -6.964844 18.894531 -6.886719 C 11.289062 -1.601562 3.042969 2.640625 0.480469 2.640625 C -0.878906 2.640625 -1.28125 2.320312 -1.28125 1.199219 C -1.28125 -0.398438 -0.238281 -2.882812 1.601562 -5.765625 C 15.210938 -14.011719 38.988281 -34.828125 38.988281 -39.46875 C 38.988281 -40.511719 38.351562 -41.070312 37.230469 -41.070312 C 30.503906 -41.070312 -2.160156 -8.246094 -2.160156 1.199219 C -2.160156 2.800781 -1.359375 3.523438 0.480469 3.523438 Z M 2.800781 -7.527344 C 11.609375 -20.496094 32.265625 -40.191406 37.230469 -40.191406 C 37.871094 -40.191406 38.109375 -39.949219 38.109375 -39.46875 C 38.109375 -35.628906 16.972656 -16.652344 2.800781 -7.527344 Z M 2.800781 -7.527344 "/></g></g></g><g fill="#000000" fill-opacity="1"><g transform="translate(136.0282, 188.992703)"><g><path d="M 2.640625 0.238281 C 5.125 0.238281 12.890625 -2 18.496094 -6.164062 C 18.65625 -6.246094 18.734375 -6.40625 18.734375 -6.566406 C 18.734375 -6.804688 18.496094 -6.964844 18.253906 -6.964844 C 18.175781 -6.964844 18.09375 -6.964844 18.015625 -6.886719 C 12.488281 -2.882812 4.964844 -0.71875 2.640625 -0.71875 C 0.800781 -0.71875 -0.160156 -1.199219 -0.160156 -2.242188 C -0.160156 -3.28125 0.640625 -4.5625 1.679688 -5.683594 C 2.160156 -5.445312 2.800781 -5.363281 3.683594 -5.363281 C 5.125 -5.363281 6.964844 -6.566406 6.964844 -7.605469 C 6.964844 -8.40625 6.40625 -8.886719 5.523438 -8.886719 C 2.882812 -8.886719 -1.121094 -4.882812 -1.121094 -2.242188 C -1.121094 -0.640625 0.320312 0.238281 2.640625 0.238281 Z M 3.683594 -6.246094 C 3.121094 -6.246094 2.722656 -6.324219 2.402344 -6.40625 C 3.441406 -7.285156 4.5625 -7.925781 5.523438 -7.925781 C 5.925781 -7.925781 6.085938 -7.847656 6.085938 -7.605469 C 6.085938 -7.125 4.5625 -6.246094 3.683594 -6.246094 Z M 3.683594 -6.246094 "/></g></g></g><g fill="#000000" fill-opacity="1"><g transform="translate(152.438299, 188.992703)"><g><path d="M 8.085938 0.078125 C 11.128906 0.078125 18.253906 -2.402344 23.699219 -6.164062 C 23.859375 -6.246094 23.9375 -6.40625 23.9375 -6.566406 C 23.9375 -6.804688 23.777344 -7.046875 23.457031 -7.046875 C 23.378906 -7.046875 23.296875 -6.964844 23.21875 -6.964844 C 17.933594 -3.28125 10.96875 -0.878906 8.085938 -0.878906 C 6.726562 -0.878906 6.085938 -1.28125 6.085938 -2.320312 C 6.085938 -3.042969 6.886719 -4.484375 8.085938 -6.484375 C 8.085938 -6.484375 8.085938 -6.484375 8.085938 -6.40625 C 8.085938 -6.164062 8.328125 -5.925781 8.566406 -5.925781 C 8.808594 -5.925781 8.96875 -6.085938 9.046875 -6.324219 C 9.046875 -6.804688 8.96875 -7.207031 8.808594 -7.527344 L 10.328125 -9.765625 C 22.257812 -20.816406 38.667969 -37.949219 38.667969 -40.03125 C 38.667969 -40.671875 38.269531 -41.070312 37.550781 -41.070312 C 34.667969 -41.070312 18.175781 -22.257812 9.925781 -10.648438 C 9.128906 -9.925781 8.40625 -9.289062 7.6875 -8.566406 C 7.367188 -8.808594 6.886719 -8.886719 6.40625 -8.886719 C 2.800781 -8.886719 -2.800781 -4.164062 -2.800781 -1.199219 C -2.800781 -0.480469 -2.320312 -0.078125 -1.761719 -0.078125 C -0.398438 -0.078125 2.5625 -2.640625 6.726562 -6.484375 C 7.046875 -6.726562 7.207031 -6.566406 6.964844 -6.246094 C 5.84375 -4.402344 5.203125 -3.042969 5.203125 -2.320312 C 5.203125 -0.71875 6.246094 0.078125 8.085938 0.078125 Z M 13.53125 -14.089844 C 22.175781 -25.378906 35.386719 -40.191406 37.550781 -40.191406 C 37.789062 -40.191406 37.789062 -40.109375 37.789062 -40.03125 C 37.789062 -38.511719 24.660156 -24.820312 13.53125 -14.089844 Z M -1.601562 -1.039062 C -1.679688 -1.039062 -1.839844 -1.039062 -1.839844 -1.28125 C -1.839844 -3.683594 3.363281 -7.925781 6.40625 -7.925781 L 6.964844 -7.925781 C 2.480469 -3.761719 -0.800781 -1.039062 -1.601562 -1.039062 Z M -1.601562 -1.039062 "/></g></g></g><g fill="#000000" fill-opacity="1"><g transform="translate(174.13165, 188.992703)"><g><path d="M -30.582031 32.746094 C -27.542969 32.746094 -22.578125 29.140625 -15.371094 21.855469 C -11.207031 17.613281 -7.6875 14.011719 -4.804688 10.886719 C -1.601562 8.726562 2 6.40625 5.84375 3.921875 C 13.050781 -0.640625 18.894531 -4.484375 20.816406 -6.003906 C 20.976562 -6.085938 20.976562 -6.246094 20.976562 -6.40625 C 20.976562 -6.644531 20.816406 -6.804688 20.574219 -6.804688 C 20.414062 -6.804688 20.335938 -6.804688 20.253906 -6.726562 C 18.335938 -5.203125 12.488281 -1.441406 5.363281 3.121094 L -2.320312 8.167969 C 2.722656 2.5625 5.605469 -1.121094 7.605469 -3.683594 C 9.609375 -6.324219 10.085938 -7.046875 10.085938 -7.847656 C 10.085938 -8.648438 9.207031 -9.046875 8.085938 -9.046875 C 3.84375 -9.046875 -4.164062 -4.082031 -4.164062 -1.441406 C -4.164062 -0.558594 -3.683594 -0.078125 -2.800781 -0.078125 C -1.519531 -0.078125 1.28125 -1.441406 6.003906 -4.324219 C 7.285156 -5.125 7.367188 -4.964844 6.886719 -4.242188 C 4.5625 -1.359375 1.121094 3.121094 -5.445312 10.167969 C -24.820312 22.816406 -32.503906 28.664062 -32.503906 30.902344 C -32.503906 32.023438 -31.703125 32.746094 -30.582031 32.746094 Z M -2.800781 -0.960938 C -3.121094 -0.960938 -3.203125 -1.121094 -3.203125 -1.441406 C -3.203125 -3.441406 4.484375 -8.085938 8.085938 -8.085938 C 8.726562 -8.085938 9.128906 -7.925781 9.128906 -7.847656 C 9.128906 -7.6875 9.128906 -7.605469 9.046875 -7.445312 L 8.808594 -7.207031 C 8.167969 -6.804688 7.125 -6.085938 5.523438 -5.125 C 0.960938 -2.402344 -1.839844 -0.960938 -2.800781 -0.960938 Z M -30.582031 31.785156 C -31.222656 31.785156 -31.625 31.464844 -31.625 30.902344 C -31.625 29.300781 -24.578125 23.859375 -8.085938 12.96875 C -10.40625 15.453125 -13.050781 18.175781 -16.011719 21.214844 C -23.058594 28.261719 -27.941406 31.785156 -30.582031 31.785156 Z M -30.582031 31.785156 "/></g></g></g><g fill="#000000" fill-opacity="1"><g transform="translate(193.023285, 188.992703)"><g><path d="M 2.640625 0.238281 C 5.125 0.238281 12.890625 -2 18.496094 -6.164062 C 18.65625 -6.246094 18.734375 -6.40625 18.734375 -6.566406 C 18.734375 -6.804688 18.496094 -6.964844 18.253906 -6.964844 C 18.175781 -6.964844 18.09375 -6.964844 18.015625 -6.886719 C 12.488281 -2.882812 4.964844 -0.71875 2.640625 -0.71875 C 0.800781 -0.71875 -0.160156 -1.199219 -0.160156 -2.242188 C -0.160156 -3.28125 0.640625 -4.5625 1.679688 -5.683594 C 2.160156 -5.445312 2.800781 -5.363281 3.683594 -5.363281 C 5.125 -5.363281 6.964844 -6.566406 6.964844 -7.605469 C 6.964844 -8.40625 6.40625 -8.886719 5.523438 -8.886719 C 2.882812 -8.886719 -1.121094 -4.882812 -1.121094 -2.242188 C -1.121094 -0.640625 0.320312 0.238281 2.640625 0.238281 Z M 3.683594 -6.246094 C 3.121094 -6.246094 2.722656 -6.324219 2.402344 -6.40625 C 3.441406 -7.285156 4.5625 -7.925781 5.523438 -7.925781 C 5.925781 -7.925781 6.085938 -7.847656 6.085938 -7.605469 C 6.085938 -7.125 4.5625 -6.246094 3.683594 -6.246094 Z M 3.683594 -6.246094 "/></g></g></g><g fill="#000000" fill-opacity="1"><g transform="translate(209.433384, 188.992703)"><g/></g></g><g fill="#000000" fill-opacity="1"><g transform="translate(227.124272, 188.992703)"><g><path d="M 20.816406 3.441406 C 21.054688 3.441406 21.296875 3.203125 21.296875 2.960938 C 21.296875 2.882812 21.296875 2.800781 21.214844 2.722656 C 20.816406 1.921875 22.816406 -1.519531 27.941406 -8.246094 C 31.863281 -8.167969 36.1875 -7.925781 41.070312 -7.605469 C 41.3125 -7.605469 41.550781 -7.847656 41.550781 -8.085938 C 41.550781 -8.328125 41.3125 -8.488281 41.070312 -8.566406 C 36.507812 -8.808594 32.425781 -9.046875 28.664062 -9.207031 C 30.421875 -11.527344 32.585938 -14.25 35.066406 -17.453125 C 38.351562 -21.457031 40.992188 -24.820312 41.3125 -25.699219 C 41.632812 -26.582031 41.3125 -27.140625 40.429688 -27.140625 C 36.589844 -27.140625 22.335938 -17.773438 10.96875 -9.128906 C 6.246094 -8.886719 2.480469 -8.40625 -0.558594 -7.765625 C -0.800781 -7.6875 -0.960938 -7.527344 -0.960938 -7.285156 C -0.960938 -7.046875 -0.71875 -6.804688 -0.480469 -6.804688 L -0.398438 -6.804688 C 2.320312 -7.445312 5.605469 -7.847656 9.609375 -8.085938 C 5.925781 -5.285156 2.640625 -2.5625 0.160156 -0.320312 C 0.078125 -0.238281 0 -0.160156 0 0 C 0 0.238281 0.238281 0.480469 0.480469 0.480469 C 0.558594 0.480469 0.71875 0.398438 0.800781 0.320312 C 3.441406 -2.082031 7.207031 -5.125 11.289062 -8.246094 C 15.613281 -8.488281 20.65625 -8.488281 26.820312 -8.328125 C 21.617188 -1.519531 19.695312 1.921875 20.414062 3.203125 C 20.496094 3.363281 20.65625 3.441406 20.816406 3.441406 Z M 12.570312 -9.207031 C 23.617188 -17.535156 36.910156 -26.261719 40.429688 -26.261719 C 40.589844 -26.261719 40.589844 -26.421875 40.429688 -26.019531 C 40.191406 -25.300781 37.628906 -22.097656 34.347656 -18.015625 L 27.460938 -9.207031 C 21.617188 -9.367188 16.734375 -9.367188 12.570312 -9.207031 Z M 12.570312 -9.207031 "/></g></g></g><g fill="#000000" fill-opacity="1"><g transform="translate(264.747418, 188.992703)"><g><path d="M 8.085938 0.078125 C 11.128906 0.078125 18.253906 -2.402344 23.699219 -6.164062 C 23.859375 -6.246094 23.9375 -6.40625 23.9375 -6.566406 C 23.9375 -6.804688 23.777344 -7.046875 23.457031 -7.046875 C 23.378906 -7.046875 23.296875 -6.964844 23.21875 -6.964844 C 17.933594 -3.28125 10.96875 -0.878906 8.085938 -0.878906 C 6.726562 -0.878906 6.085938 -1.28125 6.085938 -2.320312 C 6.085938 -3.042969 6.886719 -4.484375 8.085938 -6.484375 C 8.085938 -6.484375 8.085938 -6.484375 8.085938 -6.40625 C 8.085938 -6.164062 8.328125 -5.925781 8.566406 -5.925781 C 8.808594 -5.925781 8.96875 -6.085938 9.046875 -6.324219 C 9.046875 -6.804688 8.96875 -7.207031 8.808594 -7.527344 L 10.328125 -9.765625 C 22.257812 -20.816406 38.667969 -37.949219 38.667969 -40.03125 C 38.667969 -40.671875 38.269531 -41.070312 37.550781 -41.070312 C 34.667969 -41.070312 18.175781 -22.257812 9.925781 -10.648438 C 9.128906 -9.925781 8.40625 -9.289062 7.6875 -8.566406 C 7.367188 -8.808594 6.886719 -8.886719 6.40625 -8.886719 C 2.800781 -8.886719 -2.800781 -4.164062 -2.800781 -1.199219 C -2.800781 -0.480469 -2.320312 -0.078125 -1.761719 -0.078125 C -0.398438 -0.078125 2.5625 -2.640625 6.726562 -6.484375 C 7.046875 -6.726562 7.207031 -6.566406 6.964844 -6.246094 C 5.84375 -4.402344 5.203125 -3.042969 5.203125 -2.320312 C 5.203125 -0.71875 6.246094 0.078125 8.085938 0.078125 Z M 13.53125 -14.089844 C 22.175781 -25.378906 35.386719 -40.191406 37.550781 -40.191406 C 37.789062 -40.191406 37.789062 -40.109375 37.789062 -40.03125 C 37.789062 -38.511719 24.660156 -24.820312 13.53125 -14.089844 Z M -1.601562 -1.039062 C -1.679688 -1.039062 -1.839844 -1.039062 -1.839844 -1.28125 C -1.839844 -3.683594 3.363281 -7.925781 6.40625 -7.925781 L 6.964844 -7.925781 C 2.480469 -3.761719 -0.800781 -1.039062 -1.601562 -1.039062 Z M -1.601562 -1.039062 "/></g></g></g><g fill="#000000" fill-opacity="1"><g transform="translate(286.440782, 188.992703)"><g><path d="M 8.085938 0.078125 C 11.128906 0.078125 18.253906 -2.402344 23.699219 -6.164062 C 23.859375 -6.246094 23.9375 -6.40625 23.9375 -6.566406 C 23.9375 -6.804688 23.777344 -7.046875 23.457031 -7.046875 C 23.378906 -7.046875 23.296875 -6.964844 23.21875 -6.964844 C 17.933594 -3.28125 10.96875 -0.878906 8.085938 -0.878906 C 6.726562 -0.878906 6.085938 -1.28125 6.085938 -2.320312 C 6.085938 -3.042969 6.886719 -4.484375 8.085938 -6.484375 C 8.085938 -6.484375 8.085938 -6.484375 8.085938 -6.40625 C 8.085938 -6.164062 8.328125 -5.925781 8.566406 -5.925781 C 8.808594 -5.925781 8.96875 -6.085938 9.046875 -6.324219 C 9.046875 -6.804688 8.96875 -7.207031 8.808594 -7.527344 L 10.328125 -9.765625 C 22.257812 -20.816406 38.667969 -37.949219 38.667969 -40.03125 C 38.667969 -40.671875 38.269531 -41.070312 37.550781 -41.070312 C 34.667969 -41.070312 18.175781 -22.257812 9.925781 -10.648438 C 9.128906 -9.925781 8.40625 -9.289062 7.6875 -8.566406 C 7.367188 -8.808594 6.886719 -8.886719 6.40625 -8.886719 C 2.800781 -8.886719 -2.800781 -4.164062 -2.800781 -1.199219 C -2.800781 -0.480469 -2.320312 -0.078125 -1.761719 -0.078125 C -0.398438 -0.078125 2.5625 -2.640625 6.726562 -6.484375 C 7.046875 -6.726562 7.207031 -6.566406 6.964844 -6.246094 C 5.84375 -4.402344 5.203125 -3.042969 5.203125 -2.320312 C 5.203125 -0.71875 6.246094 0.078125 8.085938 0.078125 Z M 13.53125 -14.089844 C 22.175781 -25.378906 35.386719 -40.191406 37.550781 -40.191406 C 37.789062 -40.191406 37.789062 -40.109375 37.789062 -40.03125 C 37.789062 -38.511719 24.660156 -24.820312 13.53125 -14.089844 Z M -1.601562 -1.039062 C -1.679688 -1.039062 -1.839844 -1.039062 -1.839844 -1.28125 C -1.839844 -3.683594 3.363281 -7.925781 6.40625 -7.925781 L 6.964844 -7.925781 C 2.480469 -3.761719 -0.800781 -1.039062 -1.601562 -1.039062 Z M -1.601562 -1.039062 "/></g></g></g><g fill="#000000" fill-opacity="1"><g transform="translate(308.134145, 188.992703)"><g><path d="M 5.765625 -10.328125 C 5.925781 -10.328125 6.003906 -10.328125 6.085938 -10.488281 L 6.40625 -10.808594 C 6.644531 -11.207031 6.964844 -11.609375 7.125 -11.769531 C 7.207031 -11.847656 7.207031 -12.007812 7.207031 -12.089844 C 7.207031 -12.328125 7.046875 -12.570312 6.804688 -12.570312 C 6.644531 -12.570312 6.484375 -12.488281 6.40625 -12.410156 C 6.246094 -12.167969 5.925781 -11.6875 5.683594 -11.367188 L 5.363281 -11.046875 C 5.285156 -10.96875 5.285156 -10.886719 5.285156 -10.726562 C 5.285156 -10.488281 5.523438 -10.328125 5.765625 -10.328125 Z M 0.640625 0.480469 C 3.363281 0.480469 11.769531 -3.441406 16.09375 -6.164062 C 16.171875 -6.246094 16.253906 -6.40625 16.253906 -6.566406 C 16.253906 -6.804688 16.09375 -6.964844 15.773438 -6.964844 L 15.53125 -6.964844 C 11.367188 -4.242188 3.121094 -0.480469 0.640625 -0.480469 C -0.238281 -0.480469 -0.640625 -0.800781 -0.640625 -1.601562 C -0.640625 -2.722656 1.28125 -5.445312 4.003906 -8.246094 C 4.082031 -8.328125 4.164062 -8.40625 4.164062 -8.566406 C 4.164062 -8.808594 3.921875 -8.96875 3.683594 -8.96875 C 3.523438 -8.96875 3.441406 -8.96875 3.363281 -8.886719 C 0.398438 -5.84375 -1.519531 -3.121094 -1.519531 -1.601562 C -1.519531 -0.320312 -0.71875 0.480469 0.640625 0.480469 Z M 0.640625 0.480469 "/></g></g></g><g fill="#000000" fill-opacity="1"><g transform="translate(322.142751, 188.992703)"><g><path d="M 2.160156 0.398438 C 6.484375 0.398438 13.691406 -2.320312 19.453125 -6.164062 C 19.613281 -6.246094 19.695312 -6.40625 19.695312 -6.566406 C 19.695312 -6.804688 19.453125 -6.964844 19.214844 -6.964844 C 19.136719 -6.964844 19.054688 -6.964844 18.976562 -6.886719 C 13.289062 -3.203125 6.324219 -0.558594 2.160156 -0.558594 C 0.398438 -0.558594 -0.238281 -0.878906 -0.238281 -2 L -0.238281 -2.640625 C 0.238281 -4.882812 3.441406 -7.925781 5.445312 -7.925781 C 5.765625 -7.925781 6.003906 -7.765625 6.003906 -7.527344 C 5.925781 -6.964844 5.285156 -6.164062 4.644531 -5.765625 C 4.5625 -5.683594 4.402344 -5.523438 4.402344 -5.363281 C 4.402344 -5.125 4.644531 -4.882812 4.882812 -4.882812 C 4.964844 -4.882812 5.042969 -4.964844 5.125 -4.964844 C 6.085938 -5.523438 6.886719 -6.726562 6.886719 -7.6875 C 6.886719 -8.40625 6.324219 -8.886719 5.445312 -8.886719 C 3.042969 -8.886719 -0.640625 -5.445312 -1.121094 -2.800781 C -1.199219 -2.480469 -1.199219 -2.242188 -1.199219 -2 C -1.199219 -0.320312 -0.078125 0.398438 2.160156 0.398438 Z M 2.160156 0.398438 "/></g></g></g><g fill="#000000" fill-opacity="1"><g transform="translate(339.593487, 188.992703)"><g><path d="M -16.894531 20.335938 C -16.492188 20.335938 -16.011719 19.695312 -15.613281 19.054688 C -15.453125 18.816406 -15.453125 18.574219 -15.613281 18.496094 C -8.007812 6.566406 1.679688 -5.925781 11.609375 -17.535156 C 18.574219 -17.855469 25.699219 -17.855469 32.503906 -17.613281 C 32.824219 -17.613281 32.984375 -17.773438 32.984375 -18.015625 C 32.984375 -18.253906 32.824219 -18.496094 32.585938 -18.496094 C 25.941406 -18.734375 19.136719 -18.734375 12.488281 -18.496094 C 16.8125 -23.539062 21.136719 -28.421875 25.460938 -33.066406 C 25.539062 -33.144531 25.539062 -33.304688 25.539062 -33.386719 C 25.539062 -33.625 25.378906 -33.867188 25.058594 -33.867188 C 24.980469 -33.867188 24.820312 -33.785156 24.738281 -33.707031 C 20.253906 -28.824219 15.691406 -23.699219 11.207031 -18.414062 C 4.003906 -18.175781 -2.960938 -17.613281 -9.207031 -16.8125 C -9.449219 -16.734375 -9.609375 -16.574219 -9.609375 -16.332031 C -9.609375 -16.09375 -9.367188 -15.851562 -9.128906 -15.851562 L -9.046875 -15.851562 C -3.121094 -16.652344 3.523438 -17.214844 10.40625 -17.535156 C 0.320312 -5.683594 -9.367188 6.886719 -17.054688 18.976562 C -17.132812 19.136719 -17.214844 19.296875 -17.292969 19.453125 L -17.375 19.535156 C -17.535156 20.015625 -17.453125 20.335938 -16.894531 20.335938 Z M -16.894531 20.335938 "/></g></g></g><g fill="#000000" fill-opacity="1"><g transform="translate(287.324955, 219.64837)"><g><path d="M 5.449219 -1.984375 C 5.449219 -2.488281 5.320312 -2.917969 5.082031 -3.253906 C 4.828125 -3.589844 4.492188 -3.820312 4.082031 -3.9375 C 4.324219 -4.042969 4.535156 -4.230469 4.691406 -4.511719 C 4.765625 -4.640625 4.816406 -4.765625 4.859375 -4.902344 C 4.902344 -5.039062 4.921875 -5.226562 4.921875 -5.46875 C 4.921875 -5.699219 4.859375 -5.941406 4.753906 -6.171875 C 4.441406 -6.8125 3.757812 -7.136719 2.71875 -7.136719 L 0.789062 -7.136719 L 0.789062 0 L 2.96875 0 C 3.695312 0 4.273438 -0.15625 4.714844 -0.492188 C 4.933594 -0.660156 5.113281 -0.882812 5.25 -1.15625 C 5.375 -1.417969 5.449219 -1.691406 5.449219 -1.984375 Z M 4.1875 -5.351562 C 4.1875 -4.964844 4.074219 -4.679688 3.839844 -4.492188 C 3.609375 -4.304688 3.304688 -4.210938 2.929688 -4.210938 L 1.523438 -4.210938 L 1.523438 -6.433594 L 2.71875 -6.433594 C 3.695312 -6.433594 4.1875 -6.066406 4.1875 -5.351562 Z M 4.714844 -2.128906 C 4.714844 -1.699219 4.566406 -1.355469 4.273438 -1.089844 C 3.988281 -0.828125 3.621094 -0.703125 3.179688 -0.703125 L 1.523438 -0.703125 L 1.523438 -3.472656 L 3.296875 -3.472656 C 3.664062 -3.472656 3.988281 -3.347656 4.273438 -3.097656 C 4.398438 -2.980469 4.503906 -2.84375 4.585938 -2.6875 C 4.671875 -2.519531 4.714844 -2.339844 4.714844 -2.128906 Z M 4.714844 -2.128906 "/></g></g></g><g fill="#000000" fill-opacity="1"><g transform="translate(296.058174, 219.64837)"><g><path d="M 1.523438 -0.734375 L 1.523438 -7.136719 L 0.789062 -7.136719 L 0.789062 0 L 4.074219 0 L 4.074219 -0.734375 Z M 1.523438 -0.734375 "/></g></g></g><g fill="#000000" fill-opacity="1"><g transform="translate(303.416349, 219.64837)"><g><path d="M 7.074219 -3.589844 C 7.074219 -2.769531 6.78125 -2.078125 6.214844 -1.511719 C 5.636719 -0.933594 4.945312 -0.652344 4.136719 -0.652344 C 3.328125 -0.652344 2.632812 -0.933594 2.066406 -1.511719 C 1.492188 -2.078125 1.207031 -2.769531 1.207031 -3.589844 C 1.207031 -4.386719 1.492188 -5.082031 2.066406 -5.65625 C 2.632812 -6.222656 3.328125 -6.519531 4.136719 -6.519531 C 4.945312 -6.519531 5.636719 -6.222656 6.214844 -5.65625 C 6.78125 -5.082031 7.074219 -4.386719 7.074219 -3.589844 Z M 7.808594 -3.589844 C 7.808594 -4.09375 7.703125 -4.566406 7.515625 -5.015625 C 7.328125 -5.457031 7.0625 -5.847656 6.726562 -6.183594 C 6.390625 -6.507812 6.003906 -6.769531 5.5625 -6.960938 C 5.113281 -7.148438 4.640625 -7.253906 4.136719 -7.253906 C 3.632812 -7.253906 3.148438 -7.148438 2.707031 -6.960938 C 2.265625 -6.769531 1.878906 -6.507812 1.542969 -6.183594 C 1.207031 -5.847656 0.945312 -5.457031 0.753906 -5.015625 C 0.566406 -4.566406 0.472656 -4.09375 0.472656 -3.589844 C 0.472656 -3.085938 0.566406 -2.601562 0.753906 -2.164062 C 0.945312 -1.710938 1.207031 -1.324219 1.542969 -0.988281 C 1.878906 -0.652344 2.265625 -0.386719 2.707031 -0.199219 C 3.148438 -0.0117188 3.632812 0.0820312 4.136719 0.0820312 C 4.640625 0.0820312 5.113281 -0.0117188 5.5625 -0.199219 C 6.003906 -0.386719 6.390625 -0.652344 6.726562 -0.988281 C 7.0625 -1.324219 7.328125 -1.710938 7.515625 -2.164062 C 7.703125 -2.601562 7.808594 -3.085938 7.808594 -3.589844 Z M 7.808594 -3.589844 "/></g></g></g><g fill="#000000" fill-opacity="1"><g transform="translate(314.773703, 219.64837)"><g><path d="M 7.832031 -3.335938 L 4.113281 -3.335938 L 4.113281 -2.699219 L 7.011719 -2.699219 C 6.792969 -2.078125 6.425781 -1.574219 5.898438 -1.207031 C 5.375 -0.828125 4.785156 -0.652344 4.144531 -0.652344 C 3.328125 -0.652344 2.632812 -0.933594 2.058594 -1.511719 C 1.492188 -2.089844 1.207031 -2.792969 1.207031 -3.601562 C 1.207031 -4.410156 1.492188 -5.101562 2.066406 -5.679688 C 2.632812 -6.246094 3.328125 -6.539062 4.144531 -6.539062 C 4.753906 -6.539062 5.3125 -6.359375 5.804688 -6.015625 C 6.308594 -5.667969 6.664062 -5.214844 6.894531 -4.640625 L 7.671875 -4.640625 C 7.429688 -5.425781 6.980469 -6.054688 6.328125 -6.539062 C 5.679688 -7.023438 4.921875 -7.273438 4.074219 -7.273438 C 3.609375 -7.273438 3.160156 -7.167969 2.71875 -6.980469 C 2.265625 -6.792969 1.878906 -6.527344 1.542969 -6.191406 C 1.207031 -5.855469 0.945312 -5.46875 0.753906 -5.027344 C 0.566406 -4.578125 0.472656 -4.09375 0.472656 -3.589844 C 0.472656 -3.085938 0.566406 -2.601562 0.753906 -2.164062 C 0.945312 -1.710938 1.207031 -1.324219 1.542969 -0.988281 C 1.878906 -0.652344 2.265625 -0.386719 2.71875 -0.199219 C 3.160156 -0.0117188 3.640625 0.0820312 4.144531 0.0820312 C 5.007812 0.0820312 5.785156 -0.1875 6.476562 -0.746094 C 7.167969 -1.3125 7.597656 -2.027344 7.757812 -2.898438 Z M 7.832031 -3.335938 "/></g></g></g><path stroke-linecap="butt" transform="matrix(0.750916, 0, 0, 0.75, 120.060671, 203.614439)" fill="none" stroke-linejoin="miter" d="M 0.00243567 0.498457 L 268.679523 0.498457 " stroke="#000000" stroke-width="1" stroke-opacity="1" stroke-miterlimit="4"/></svg>